<svg
  width="160"
  height="41"
  viewBox="0 0 160 41"
  fill="none"
  xmlns="http://www.w3.org/2000/svg"
  class="css-1uk1gs8"
>
  <g>
    <rect
      x="0"
      y="0"
      width="13"
      height="13"
      rx="6.5"
      fill="rgb(239, 68, 35)"
      class="css-1icp9vn e1qyxux00"
    ></rect>
    <rect
      x="14.5"
      y="0.5"
      width="25.5"
      height="12"
      rx="1.5"
      fill="rgb(9, 26, 79)"
      class="css-1icp9vn e1qyxux00"
    ></rect>
    <rect
      x="0.5"
      y="14.5"
      width="12"
      height="12"
      rx="1.5"
      fill="rgb(9, 26, 79)"
      class="css-1icp9vn e1qyxux00"
    ></rect>
    <rect
      x="14.5"
      y="14.5"
      width="25.5"
      height="12"
      rx="1.5"
      fill="rgba(255, 210, 41)"
      class="css-1icp9vn e1qyxux00"
    ></rect>
    <rect
      x="0"
      y="28.5"
      width="26"
      height="12"
      rx="6"
      fill="rgb(239, 68, 35)"
      class="css-1icp9vn e1qyxux00"
    ></rect>
  </g>
  <g>
    <path
      d="M60 27.6667H63.1607V20.9286H71.1105V18.119H63.1607V13.8095H71.8288V11H60V27.6667Z"
      fill="rgb(9, 26, 79)"
    ></path>
    <path
      d="M72.9327 21.7618C72.9327 25.7618 76.0456 27.9999 79.4218 27.9999C82.7981 27.9999 85.9112 25.7618 85.9112 21.7618C85.9112 17.7618 82.7981 15.5237 79.4218 15.5237C76.0456 15.5237 72.9327 17.7618 72.9327 21.7618ZM82.846 21.7618C82.846 23.857 81.2416 25.1903 79.4218 25.1903C77.602 25.1903 75.9977 23.857 75.9977 21.7618C75.9977 19.6665 77.602 18.3332 79.4218 18.3332C81.2416 18.3332 82.846 19.6665 82.846 21.7618Z"
      fill="rgb(9, 26, 79)"
    ></path>
    <path
      d="M88.2648 27.6665H91.2818V21.8332C91.2818 19.8094 92.4073 18.3332 94.1552 18.3332C94.5144 18.3332 94.8257 18.3808 95.137 18.4999L95.6159 15.6665C95.3046 15.5713 94.9454 15.5237 94.5863 15.5237C93.0777 15.5237 91.9763 16.3332 91.2818 17.738V15.857H88.2648V27.6665Z"
      fill="rgb(9, 26, 79)"
    ></path>
    <path
      d="M97.4547 27.6665H100.472V21.0475C100.472 19.238 101.477 18.1427 102.723 18.1427C103.992 18.1427 104.638 18.9046 104.638 20.4046V27.6665H107.655V21.0951C107.655 19.1903 108.589 18.1427 109.954 18.1427C111.199 18.1427 111.822 18.8808 111.822 20.357V27.6665H114.839V19.4046C114.839 17.0237 113.426 15.5237 111.008 15.5237C109.475 15.5237 108.062 16.2142 107.224 17.5475C106.673 16.1903 105.572 15.5237 103.92 15.5237C102.579 15.5237 101.31 16.1189 100.472 17.4284V15.857H97.4547V27.6665Z"
      fill="rgb(9, 26, 79)"
    ></path>
    <path
      d="M116.756 24.4522C117.642 26.5237 119.438 27.9999 122.192 27.9999C125.089 27.9999 126.885 26.3094 126.885 24.0713C126.885 22.0951 125.688 20.9999 122.91 20.4284C121.019 20.0475 120.109 19.5237 120.109 18.7618C120.109 18.0713 120.851 17.7142 121.905 17.7142C123.126 17.7142 124.084 18.4761 124.586 19.7856L126.765 18.4999C125.784 16.4284 124.371 15.5237 121.857 15.5237C119.486 15.5237 117.427 16.7856 117.427 18.9523C117.427 20.9761 119.055 22.1665 121.569 22.6427C123.365 22.9999 124.107 23.4046 124.107 24.1665C124.107 24.9999 123.221 25.4761 122.24 25.4761C120.779 25.4761 119.726 24.4761 119.175 22.9284L116.756 24.4522Z"
      fill="rgb(9, 26, 79)"
    ></path>
    <path
      d="M128.306 21.7618C128.306 25.7618 131.419 27.9999 134.795 27.9999C138.171 27.9999 141.284 25.7618 141.284 21.7618C141.284 17.7618 138.171 15.5237 134.795 15.5237C131.419 15.5237 128.306 17.7618 128.306 21.7618ZM138.219 21.7618C138.219 23.857 136.615 25.1903 134.795 25.1903C132.975 25.1903 131.371 23.857 131.371 21.7618C131.371 19.6665 132.975 18.3332 134.795 18.3332C136.615 18.3332 138.219 19.6665 138.219 21.7618Z"
      fill="rgb(9, 26, 79)"
    ></path>
    <path
      d="M143.638 27.6665H146.655V21.8332C146.655 19.8094 147.78 18.3332 149.528 18.3332C149.887 18.3332 150.199 18.3808 150.51 18.4999L150.989 15.6665C150.677 15.5713 150.318 15.5237 149.959 15.5237C148.451 15.5237 147.349 16.3332 146.655 17.738V15.857H143.638V27.6665Z"
      fill="rgb(9, 26, 79)"
    ></path>
    <path
      d="M154.181 24.2379C154.181 26.9284 155.69 27.9998 157.989 27.9998C158.731 27.9998 159.401 27.8808 160 27.6665L159.713 25.1903C159.401 25.2855 159.066 25.3332 158.707 25.3332C157.701 25.3332 157.198 24.7855 157.198 23.6665V18.2855H159.784V15.857H157.198V12.6665H154.181V15.857H152.338V18.2855H154.181V24.2379Z"
      fill="rgb(9, 26, 79)"
    ></path>
  </g>
</svg>
